<?xml version="1.0" encoding="UTF-8"?><svg fill-opacity="1" color-rendering="auto" color-interpolation="auto" text-rendering="auto" stroke="black" stroke-linecap="square" stroke-miterlimit="10" shape-rendering="auto" stroke-opacity="1" fill="black" preserveAspectRatio="xMinYMin meet" stroke-dasharray="none" font-weight="normal" stroke-width="1" viewBox="0 0 793 1122" font-family="'Dialog'" font-style="normal" stroke-linejoin="miter" font-size="12" stroke-dashoffset="0" image-rendering="auto" xmlns="http://www.w3.org/2000/svg">
<!--Generated by the Batik Graphics2D SVG Generator-->
<defs id="genericDefs"/>
<g>
<defs id="defs1">
<clipPath clipPathUnits="userSpaceOnUse" id="clipPath1">
<path d="M0 0 L793 0 L793 1122 L0 1122 L0 0 Z"/>
</clipPath>
</defs>
<g>
<rect x="118" width="557" height="1" y="73" clip-path="url(#clipPath1)" stroke="none"/>
<text x="487 499 511 523 535 547" xml:space="preserve" y="69" font-family="'宋体','STSong'" stroke="none">更多资源下载</text>
<text x="562 571 580 587 590 596 599 605 611 617 621 626 632 637 643 648 652 657 663" xml:space="preserve" y="69" font-family="'Times New Roman'" stroke="none">www.yingxiaozhe.com</text>
</g>
<g fill="rgb(51,51,51)" font-size="14" font-family="'宋体','STSong'" stroke="rgb(51,51,51)">
<text x="120 134 148 162 176" xml:space="preserve" y="111" stroke="none">贷：包装物</text>
<text x="120" xml:space="preserve" y="132" clip-path="url(#clipPath1)" stroke="none">（</text>
<text x="134" xml:space="preserve" y="132" clip-path="url(#clipPath1)" font-family="'Arial'" stroke="none">2</text>
<text x="141 155 169 183 197 211 225" xml:space="preserve" y="132" stroke="none">）随产品出售且</text>
<text x="120 134 148 162 176 190 204 218 232 246 260 274 288" xml:space="preserve" y="153" stroke="none">借：营业费用（不单独计价）</text>
<text x="120 134 148 162 176 190 204 218 232 246 260 274" xml:space="preserve" y="174" stroke="none">其他业务支出（单独计价）</text>
<text x="120 134 148 162 176" xml:space="preserve" y="194" stroke="none">贷：包装物</text>
<text x="120" xml:space="preserve" y="215" clip-path="url(#clipPath1)" stroke="none">（</text>
<text x="134" xml:space="preserve" y="215" clip-path="url(#clipPath1)" font-family="'Arial'" stroke="none">3</text>
<text x="141 155 169 183 197 211 225 239 253 267" xml:space="preserve" y="215" stroke="none">）包装物的出租、出借</text>
<text x="120 134 148 162 176 190 204 218 232 246 260" xml:space="preserve" y="236" stroke="none">①第一次领用新包装物时</text>
<text x="120 134 148 162 176 190 204 218 232 246 260 274" xml:space="preserve" y="257" stroke="none">借：其他业务支出（出租）</text>
<text x="120 134 148 162 176 190 204 218" xml:space="preserve" y="278" stroke="none">营业费用（出借）</text>
<text x="120 134 148 162 176" xml:space="preserve" y="298" stroke="none">贷：包装物</text>
<text x="120 134 148 162 176 190 204 218 232 246 260 274 288 302 316 330 344" xml:space="preserve" y="319" stroke="none">注：出租、出借金额较大时可分期摊销</text>
<text x="120 134 148 162 176" xml:space="preserve" y="340" stroke="none">②收取押金</text>
<text x="120 134 148 162 176 190" xml:space="preserve" y="361" stroke="none">借：银行存款</text>
<text x="120 134 148 162 176 190 204" xml:space="preserve" y="382" stroke="none">贷：其他应付款</text>
<text x="120 134 148 162 176" xml:space="preserve" y="402" stroke="none">③收取租金</text>
<text x="120 134 148 162 176 190" xml:space="preserve" y="423" stroke="none">借：银行存款</text>
<text x="120 134 148 162 176 190 204 218 232 246 260" xml:space="preserve" y="444" stroke="none">贷：应交税金－增（销）</text>
<text x="120 134 148 162 176 190" xml:space="preserve" y="465" stroke="none">其他业务收入</text>
<text x="120 134 148 162 176 190 211 225 239 253 267 281 295 309 316" xml:space="preserve" y="486" stroke="none">④退还包装物（不管是否报废），</text>
<text x="120 134 148 162 176 190 204 218 232 246 260 274 288 302 316 330 344 358 372 386 400" xml:space="preserve" y="506" stroke="none">借：其他应付款（按退还包装物比例退回押金）</text>
<text x="120 134 148 162 176 190" xml:space="preserve" y="527" stroke="none">贷：银行存款</text>
<text x="120 134 148 162 176 190 204 218 232 246 260 274 288 302 316 330 344 358 372" xml:space="preserve" y="548" stroke="none">⑤损坏、缺少、逾期未归还等原因没收押金</text>
<text x="120 134 148 162 176 190 204" xml:space="preserve" y="569" stroke="none">借：其他应付款</text>
<text x="120 134 148 162 176 190 204 218 232 246 260" xml:space="preserve" y="590" stroke="none">其他业务支出（消费税）</text>
<text x="120 134 148 162 176 190 204 218 232 246 260" xml:space="preserve" y="610" stroke="none">贷：应交税金－增（销）</text>
<text x="120 134 148 162 176 190 204 218 232 246" xml:space="preserve" y="631" stroke="none">应交税金－应交消费税</text>
<text x="120 134 148 162 176 190 204 218 232 246 260 274" xml:space="preserve" y="652" stroke="none">其他业务收入（押金部分）</text>
<text x="120 134 148 162 176 190 204 218 232 246 260 274 288 302 316 330" xml:space="preserve" y="673" stroke="none">⑥不能使用而报废时，按其残料价值</text>
<text x="120 134 148 162 176" xml:space="preserve" y="694" stroke="none">借：原材料</text>
<text x="120 134 148 162 176 190 204 218 232 246 260 274" xml:space="preserve" y="714" stroke="none">贷：其他业务支出（出租）</text>
<text x="120 134 148 162 176 190 204 218" xml:space="preserve" y="735" stroke="none">营业费用（出借）</text>
<text x="120 134 148 162 176 190 204 218 232 246 260 274 288 302 316 330" xml:space="preserve" y="756" stroke="none">⑤摊销（略）——一次、五五、分次</text>
<text x="120 128" xml:space="preserve" y="777" font-family="'Arial'" stroke="none">4.</text>
<text x="131 145 159 173 187 201 215 229 243 257 271 285 299" xml:space="preserve" y="777" stroke="none">低值易耗品（处理同包装物）</text>
<text x="120 128" xml:space="preserve" y="798" font-family="'Arial'" stroke="none">5.</text>
<text x="131 145 159 173" xml:space="preserve" y="798" stroke="none">存货清查</text>
<text x="120 134 148" xml:space="preserve" y="818" stroke="none">⑴盘盈</text>
<text x="120 134 148" xml:space="preserve" y="839" stroke="none">①确认</text>
<text x="120 134 148 162 176" xml:space="preserve" y="860" stroke="none">借：原材料</text>
<text x="120 134 148 162 176 190 204 218 232 246 260 274 288 302 316 330 344 358 372" xml:space="preserve" y="881" stroke="none">贷：待处理财产损溢－待处理流动资产损溢</text>
<text x="120 134 148 162 176" xml:space="preserve" y="902" stroke="none">②报批转销</text>
<text x="120 134 148 162 176 190 204 218 232" xml:space="preserve" y="922" stroke="none">借：待处理财产损溢</text>
<text x="120 134 148 162 176 190" xml:space="preserve" y="943" stroke="none">贷：管理费用</text>
<text x="120 134 148 162 176 190" xml:space="preserve" y="964" stroke="none">⑵盘亏或毁损</text>
<text x="120 134 148" xml:space="preserve" y="985" stroke="none">①确认</text>
<text x="120 134 148 162 176 190 204 218 232" xml:space="preserve" y="1006" stroke="none">借：待处理财产损溢</text>
</g>
</g>
</svg>
