<?xml version="1.0" encoding="UTF-8"?><svg fill-opacity="1" color-rendering="auto" color-interpolation="auto" text-rendering="auto" stroke="black" stroke-linecap="square" stroke-miterlimit="10" shape-rendering="auto" stroke-opacity="1" fill="black" preserveAspectRatio="xMinYMin meet" stroke-dasharray="none" font-weight="normal" stroke-width="1" viewBox="0 0 793 1122" font-family="'Dialog'" font-style="normal" stroke-linejoin="miter" font-size="12" stroke-dashoffset="0" image-rendering="auto" xmlns="http://www.w3.org/2000/svg">
<!--Generated by the Batik Graphics2D SVG Generator-->
<defs id="genericDefs"/>
<g>
<defs id="defs1">
<clipPath clipPathUnits="userSpaceOnUse" id="clipPath1">
<path d="M0 0 L793 0 L793 1122 L0 1122 L0 0 Z"/>
</clipPath>
</defs>
<g>
<rect x="118" width="557" height="1" y="73" clip-path="url(#clipPath1)" stroke="none"/>
<text x="487 499 511 523 535 547" xml:space="preserve" y="69" font-family="'宋体','STSong'" stroke="none">更多资源下载</text>
<text x="562 571 580 587 590 596 599 605 611 617 621 626 632 637 643 648 652 657 663" xml:space="preserve" y="69" font-family="'Times New Roman'" stroke="none">www.yingxiaozhe.com</text>
</g>
<g fill="rgb(51,51,51)" font-size="14" font-family="'宋体','STSong'" stroke="rgb(51,51,51)">
<text x="120 134 148 162 176 190" xml:space="preserve" y="111" stroke="none">贷：坏账准备</text>
<text x="120 134 148 162 176 190" xml:space="preserve" y="132" stroke="none">②发生坏账时</text>
<text x="120 134 148 162 176 190" xml:space="preserve" y="153" stroke="none">借：坏账准备</text>
<text x="120 134 148 162 176 190" xml:space="preserve" y="174" stroke="none">贷：应收账款</text>
<text x="120 134 148 162 176 190" xml:space="preserve" y="194" stroke="none">③重新收回时</text>
<text x="120 134 148 162 176 190" xml:space="preserve" y="215" stroke="none">借：应收账款</text>
<text x="120 134 148 162 176 190" xml:space="preserve" y="236" stroke="none">贷：坏账准备</text>
<text x="120 134 148 162 176 190" xml:space="preserve" y="257" stroke="none">借：银行存款</text>
<text x="120 134 148 162 176 190" xml:space="preserve" y="278" stroke="none">贷：应收账款</text>
<text x="120" xml:space="preserve" y="298" clip-path="url(#clipPath1)" font-family="'Arial'" stroke="none">5</text>
<text x="127 141 155 169 183" xml:space="preserve" y="298" stroke="none">．应收票据</text>
<text x="198" xml:space="preserve" y="298" clip-path="url(#clipPath1)" font-family="'Arial'" stroke="none">(</text>
<text x="202 216" xml:space="preserve" y="298" stroke="none">见后</text>
<text x="231" xml:space="preserve" y="298" clip-path="url(#clipPath1)" font-family="'Arial'" stroke="none">)</text>
<text x="120 134 148 169 190" xml:space="preserve" y="319" stroke="none">第二章存货</text>
<text x="120" xml:space="preserve" y="340" clip-path="url(#clipPath1)" font-family="'Arial'" stroke="none">1</text>
<text x="131 145" xml:space="preserve" y="340" stroke="none">材料</text>
<text x="120" xml:space="preserve" y="361" clip-path="url(#clipPath1)" stroke="none">（</text>
<text x="134" xml:space="preserve" y="361" clip-path="url(#clipPath1)" font-family="'Arial'" stroke="none">1</text>
<text x="141 155 169" xml:space="preserve" y="361" stroke="none">）取得</text>
<text x="120 134 148 162 176 190 204 218 232" xml:space="preserve" y="382" stroke="none">①发票与材料同时到</text>
<text x="120 134 148 162 176" xml:space="preserve" y="402" stroke="none">借：原材料</text>
<text x="120 134 148 162 176 190 204 218 232" xml:space="preserve" y="423" stroke="none">应交税金－增（进）</text>
<text x="120 134 148 162 176 190" xml:space="preserve" y="444" stroke="none">贷：银行存款</text>
<text x="120 134 148 162 176" xml:space="preserve" y="465" stroke="none">②发票先到</text>
<text x="120 134 148 162 176 190 204 218 232 246 260" xml:space="preserve" y="486" stroke="none">借：在途物资（含运费）</text>
<text x="120 134 148 162 176 190 204 218 232" xml:space="preserve" y="506" stroke="none">应交税金－增（进）</text>
<text x="120 134 148 162 176 190" xml:space="preserve" y="527" stroke="none">贷：银行存款</text>
<text x="120 134 148 162 176 190 204 218 232 246 260 274 288 302" xml:space="preserve" y="548" stroke="none">③材料已到，月末发票账单未到</text>
<text x="120 134 148 162 176" xml:space="preserve" y="569" stroke="none">借：原材料</text>
<text x="120 134 148 162 176 190 204 218 232 246 260 274 288" xml:space="preserve" y="590" stroke="none">贷：应付账款－暂估应付账款</text>
<text x="120 134 148 162 176 190 204 218 232 246 260 274 288 302 316 330 344 358 372 386" xml:space="preserve" y="610" stroke="none">注：下月初，用红字冲回，等收到发票再处理</text>
<text x="120" xml:space="preserve" y="631" clip-path="url(#clipPath1)" stroke="none">（</text>
<text x="134" xml:space="preserve" y="631" clip-path="url(#clipPath1)" font-family="'Arial'" stroke="none">2</text>
<text x="141 155 169" xml:space="preserve" y="631" stroke="none">）发出</text>
<text x="120 134 148 162 176 190 204 218 232 246 260" xml:space="preserve" y="652" stroke="none">平时登记数量，月末结转</text>
<text x="120 134 148 162 176 190" xml:space="preserve" y="673" stroke="none">借：生产成本</text>
<text x="204" xml:space="preserve" y="673" clip-path="url(#clipPath1)" font-family="'Arial'" stroke="none">/</text>
<text x="207 221 235 249" xml:space="preserve" y="673" stroke="none">在建工程</text>
<text x="264" xml:space="preserve" y="673" clip-path="url(#clipPath1)" font-family="'Arial'" stroke="none">/</text>
<text x="267 281 295 309 323 337" xml:space="preserve" y="673" stroke="none">委托加工物资</text>
<text x="352" xml:space="preserve" y="673" clip-path="url(#clipPath1)" font-family="'Arial'" stroke="none">/</text>
<text x="355" xml:space="preserve" y="673" clip-path="url(#clipPath1)" stroke="none">…</text>
<text x="120 134 148 162 176" xml:space="preserve" y="694" stroke="none">贷：原材料</text>
<text x="120 134 148 162 176 190 204" xml:space="preserve" y="714" stroke="none">⒉委托加工物资</text>
<text x="120 134 148 162 176 190 204 218 232" xml:space="preserve" y="735" stroke="none">①发出委托加工物资</text>
<text x="120 134 148 162 176 190 204 218" xml:space="preserve" y="756" stroke="none">借：委托加工物资</text>
<text x="120 134 148 162 176" xml:space="preserve" y="777" stroke="none">贷：原材料</text>
<text x="120 134 148 162 176 190 204 218 232 246 260 274 288 302" xml:space="preserve" y="798" stroke="none">②支付加工费、运杂费、增值税</text>
<text x="120 134 148 162 176 190 204 218" xml:space="preserve" y="818" stroke="none">借：委托加工物资</text>
<text x="120 134 148 162 176 190 204 218 232 246 260 274 288" xml:space="preserve" y="839" stroke="none">应交税金－应交增值税（进）</text>
<text x="120 134 148 162 176 190 204" xml:space="preserve" y="860" stroke="none">贷：银行存款等</text>
<text x="120 134 148 162 176 190 204 218 232 246 260 274 288" xml:space="preserve" y="881" stroke="none">③交纳消费税（见应交税金）</text>
<text x="120 134 148 162 176 190 204 218 232 246 260" xml:space="preserve" y="902" stroke="none">④加工完成收回加工物资</text>
<text x="120 134 148 162 176 190 204 218 232 246 260 274 288 302 316 330 344 358 372 386" xml:space="preserve" y="922" stroke="none">借：原材料（验收入库加工物资＋剩余物资）</text>
<text x="120 134 148 162 176 190 204 218" xml:space="preserve" y="943" stroke="none">贷：委托加工物资</text>
<text x="120 128" xml:space="preserve" y="964" font-family="'Arial'" stroke="none">3.</text>
<text x="131 145 159" xml:space="preserve" y="964" stroke="none">包装物</text>
<text x="120" xml:space="preserve" y="985" clip-path="url(#clipPath1)" stroke="none">（</text>
<text x="134" xml:space="preserve" y="985" clip-path="url(#clipPath1)" font-family="'Arial'" stroke="none">1</text>
<text x="141 155 169 183 197 211 225 239 253 267 281 295 309 323" xml:space="preserve" y="985" stroke="none">）生产领用，构成产品组成部分</text>
<text x="120 134 148 162 176 190" xml:space="preserve" y="1006" stroke="none">借：生产成本</text>
</g>
</g>
</svg>
